<svg width="88" height="139" viewBox="0 0 88 139" fill="none" xmlns="http://www.w3.org/2000/svg">
<path d="M43.9278 9.5284L43.9275 9.52405C43.7023 7.2058 43.5053 5.03354 43.3647 3.40071C43.2986 2.63406 43.245 1.98691 43.2068 1.49974C43.2899 1.75429 43.3766 2.05467 43.4666 2.40421C43.8587 3.92682 44.2874 6.27382 44.7752 9.54871L44.7756 9.55099C44.9156 10.4621 45.0521 11.3551 45.1811 12.1988C45.3459 13.2766 45.4983 14.2737 45.6299 15.1246C45.8617 16.6225 46.0354 17.7115 46.0988 17.9672C46.0983 17.9651 46.1037 17.9913 46.1139 18.0675C46.123 18.1357 46.1337 18.2276 46.1461 18.3434C46.1708 18.5745 46.2008 18.8911 46.2356 19.2847C46.3052 20.0713 46.393 21.1571 46.4939 22.4646C46.6956 25.079 46.949 28.5738 47.2118 32.3209C48.4509 50.3939 49.5786 62.5496 50.8216 70.3941L43.9278 9.5284ZM43.9278 9.5284C44.4719 15.6891 44.764 19.0908 44.8678 21.0161C44.9195 21.9745 44.9264 22.594 44.8889 23.0141C44.8506 23.4429 44.7614 23.727 44.5745 23.9634M43.9278 9.5284L44.5745 23.9634M44.5745 23.9634C44.4281 24.1529 44.1924 24.4317 43.8116 24.4544C43.6315 24.4651 43.4729 24.4144 43.3463 24.3571C43.2207 24.3003 43.0924 24.221 42.9652 24.1365L42.9566 24.1307L42.9483 24.1247C42.333 23.6781 41.9759 22.9824 41.7079 21.8117C41.4407 20.6448 41.2414 18.9073 41.0165 16.2671C40.6778 12.3325 40.4636 10.1257 40.2566 8.90131C40.1646 8.35712 40.0806 8.05322 40.0096 7.88808C39.9421 7.9725 39.8605 8.09639 39.7681 8.26485C39.5398 8.68134 39.2903 9.28749 39.0509 10.0096C38.5728 11.4515 38.1603 13.2775 38.0326 14.8046C37.921 16.2215 37.5834 23.7353 37.3205 31.4922L37.3205 31.4938C37.0952 37.5915 36.9353 41.2044 36.7513 43.5329C36.5668 45.8665 36.356 46.9425 36.0184 47.9552L36.0185 47.9552L36.0151 47.9648C35.5884 49.1631 35.1416 51.9897 34.8783 54.8146C34.6895 57.4545 34.3129 60.5484 34.1227 61.732L34.1216 61.7379C33.8855 63.1035 33.7628 65.7594 33.7675 68.2388C33.7699 69.473 33.8037 70.6494 33.869 71.5837C33.9017 72.0513 33.9418 72.4519 33.9885 72.7658C34.0377 73.0964 34.0876 73.2809 34.1203 73.3513L34.1271 73.3662L34.133 73.3814C34.155 73.4384 34.225 73.5627 34.366 73.7558C34.5 73.9392 34.6774 74.1572 34.8868 74.3952C35.3053 74.8709 35.8357 75.4083 36.3655 75.8818L36.3684 75.8845C37.8433 77.2244 38.8019 78.273 39.4223 79.5107C40.0431 80.7495 40.3027 82.1327 40.4731 84.0956C40.6444 86.0203 40.6724 88.5324 40.5968 90.5629C40.559 91.5775 40.4949 92.4846 40.4074 93.1445C40.3641 93.4708 40.3126 93.7573 40.2491 93.9713C40.2184 94.0746 40.1763 94.1919 40.1137 94.2935C40.0699 94.3646 39.9106 94.6014 39.5996 94.6014C39.2813 94.6014 39.0312 94.4185 38.8688 94.2552C38.6953 94.0805 38.546 93.8533 38.4249 93.6114C38.183 93.1284 38.0106 92.5006 38.0106 91.8949C38.0106 91.7012 37.9672 91.4781 37.8939 91.288C37.8577 91.1942 37.8179 91.1181 37.7801 91.0625C37.7615 91.0351 37.7452 91.0153 37.7324 91.0019C37.7194 90.9883 37.7124 90.9838 37.7129 90.9841L37.6991 90.9752C37.6934 90.9773 37.6868 90.98 37.6791 90.9835C37.6443 90.999 37.595 91.0262 37.5289 91.0722C37.247 91.2685 36.8237 91.6864 36.1435 92.4537L36.1436 92.4538L36.1372 92.4607C35.5204 93.1308 35.1611 93.5654 34.9887 93.8395C35.6143 94.1723 36.0179 94.845 36.3135 95.8178C36.649 96.9221 36.8868 98.5492 37.0935 100.871C37.3003 103.129 37.3879 104.612 37.306 106.118C37.2242 107.624 36.974 109.138 36.523 111.46L36.5232 111.46L36.5203 111.473C36.3695 112.15 36.5328 113.058 37.2463 114.81L37.2464 114.81L37.2497 114.819C37.5155 115.508 37.7631 116.207 37.9449 116.777C38.0357 117.062 38.1116 117.32 38.1654 117.531C38.2142 117.722 38.2596 117.928 38.2596 118.081C38.2596 118.076 38.2597 118.077 38.2611 118.087C38.2636 118.104 38.2697 118.148 38.2849 118.229C38.3056 118.339 38.337 118.487 38.3787 118.671C38.4618 119.039 38.5827 119.536 38.7325 120.129C39.0318 121.313 39.4439 122.867 39.8939 124.503C40.7959 127.783 41.9235 132.07 42.4127 134.022L42.4127 134.022L42.414 134.027C42.8626 135.9 43.318 137.184 43.7507 137.906C43.9706 138.273 44.1465 138.429 44.2526 138.48C44.2962 138.501 44.32 138.501 44.3338 138.499C44.3501 138.498 44.3881 138.489 44.4503 138.444L44.4577 138.438L44.4617 138.436C44.4639 138.433 44.4871 138.411 44.5208 138.343C44.5624 138.259 44.6064 138.133 44.6455 137.957C44.7238 137.605 44.7698 137.109 44.7698 136.48C44.7698 135.903 44.9638 134.144 45.2669 131.827C45.5725 129.491 45.9955 126.542 46.4654 123.554C47.366 117.587 48.491 109.324 48.9407 105.244C49.148 103.176 49.4024 101.189 49.6384 99.6475C49.7564 98.8768 49.8703 98.2135 49.9721 97.7054C50.023 97.4517 50.0716 97.2324 50.1171 97.0557C50.1598 96.8897 50.2078 96.7286 50.2633 96.6121L50.2632 96.612L50.2677 96.603C50.3926 96.3539 50.4416 96.2313 50.4561 96.129C50.467 96.0524 50.4632 95.9524 50.3761 95.7587C50.2825 95.5509 50.1089 95.2702 49.8058 94.8449C49.5058 94.424 49.0982 93.8875 48.5522 93.1716L48.5495 93.1681C47.9381 92.3515 47.3484 91.6434 46.8931 91.1516C46.7719 91.0207 46.6625 90.9076 46.5666 90.8133C46.5655 90.8171 46.5645 90.8209 46.5634 90.8248C46.4722 91.1512 46.3832 91.5877 46.3297 92.0498L46.3288 92.058L46.3276 92.0661C46.2488 92.5935 46.1284 93.0793 45.9835 93.4457C45.9122 93.6261 45.8254 93.802 45.7188 93.9422C45.631 94.0577 45.4329 94.277 45.1196 94.277V94.277L45.1104 94.2769C44.5481 94.2665 44.0573 94.0666 43.6889 93.6617C43.3333 93.2708 43.1314 92.7327 43.0385 92.1107C42.854 90.8753 43.0733 89.1237 43.6596 86.9333C44.5429 83.4906 45.266 81.1794 46.1568 79.3237C47.0541 77.4543 48.1125 76.0657 49.6372 74.4517C49.6374 74.4515 49.6375 74.4513 49.6377 74.4511L51.1968 72.7817L50.8217 70.3947L44.5745 23.9634ZM46.7217 90.3821C46.7265 90.3753 46.7268 90.3738 46.7227 90.3803C46.7224 90.3808 46.7221 90.3814 46.7217 90.3821ZM40.1171 7.77748C40.1172 7.77734 40.1158 7.77811 40.113 7.78011C40.1157 7.77859 40.1171 7.77762 40.1171 7.77748Z" fill="#E72430" stroke="#E72430"/>
<path d="M86.1238 12.3477L86.1242 12.3459C86.1313 12.3151 86.1385 12.2861 86.1457 12.2588C86.1829 12.4555 86.2028 12.7095 86.1893 13.0153C86.1772 13.178 86.1172 13.5169 86.0053 14.0252C85.8947 14.5275 85.7404 15.1656 85.5527 15.9022C85.1775 17.3747 84.6719 19.2298 84.1235 21.1577C83.0252 25.0187 81.7634 29.1441 81.0392 31.0701C80.5227 32.4086 79.2569 35.1126 78.2479 37.0504C76.7064 39.942 76.3126 40.9788 76.3126 42.6377C76.3126 43.1614 76.3514 43.6477 76.4196 44.0147C76.4529 44.1941 76.4978 44.3706 76.5611 44.5141C76.592 44.5842 76.6394 44.6747 76.7131 44.7553C76.7861 44.8352 76.9328 44.9548 77.1506 44.9548C77.5232 44.9548 77.8536 44.7461 78.114 44.5148C78.3877 44.2716 78.6612 43.9345 78.9275 43.5361C79.4618 42.7367 80.0125 41.6212 80.5089 40.3179C81.0697 38.8643 81.9623 36.7773 82.5493 35.6678L82.5506 35.6653C82.8435 35.1037 83.1094 34.6715 83.3338 34.3678C83.3489 34.3473 83.3639 34.3275 83.3785 34.3083C83.3692 34.3766 83.3573 34.4518 83.3425 34.5343C83.3425 34.5343 83.3425 34.5344 83.3425 34.5344L83.8346 34.6228C82.9334 39.555 82.7457 44.974 83.0085 55.0006L86.1238 12.3477ZM86.1238 12.3477C85.8951 13.3194 85.6364 14.2069 85.37 14.9391C85.1086 15.6578 84.8263 16.2658 84.5368 16.6518L86.1238 12.3477ZM83.3915 33.7553C83.3915 33.7554 83.3918 33.7566 83.3926 33.7585C83.3919 33.7562 83.3915 33.7552 83.3915 33.7553Z" fill="#E72430" stroke="#E72430"/>
<path d="M0.556817 13.9789L0.556919 13.9789L0.557503 13.989C0.632706 15.2887 0.782993 18.2428 0.858329 20.5839C1.00786 23.4546 1.30538 25.4433 1.80882 26.9348L1.8098 26.9378C2.28999 28.3901 2.56364 29.3542 2.51955 30.1209C2.47119 30.9619 2.05063 31.5118 1.43341 32.1456L0.69405 32.9319L1.40939 34.437C1.40968 34.4376 1.40998 34.4382 1.41027 34.4388C1.89488 35.4372 3.27963 38.1217 4.47931 40.357L4.47994 40.3582C6.23619 43.6517 6.7167 44.83 6.7167 46.3368C6.7167 46.8305 6.67756 47.2837 6.61447 47.6244C6.58361 47.7911 6.54306 47.9531 6.48829 48.0848C6.4619 48.1483 6.42095 48.2327 6.35691 48.3098C6.3002 48.3781 6.15414 48.5242 5.9163 48.5242C5.61012 48.5242 5.3051 48.3655 5.06237 48.2048C4.79817 48.0299 4.51551 47.7892 4.23542 47.5108C3.67463 46.9533 3.08412 46.2046 2.62964 45.4191C2.15643 44.6013 1.42879 43.5974 1.04396 43.1729C1.00885 43.136 0.975541 43.102 0.944014 43.0708C1.02343 43.9105 1.42422 45.541 2.19025 48.1425L2.19158 48.1472C2.92081 50.7163 3.30791 52.0837 3.51083 53.5617C3.71336 55.0368 3.73146 56.6145 3.75017 59.6053V59.6084C3.75017 62.9381 3.89983 67.0429 4.01156 68.6878L4.2561 71.4954L9.0928 75.5806L9.09301 75.5808C10.8422 77.0598 12.1127 78.198 12.9724 79.0565C13.402 79.4854 13.7369 79.8523 13.9799 80.1628C14.2138 80.4618 14.3974 80.7515 14.4718 81.0216L14.4755 81.0349L14.4784 81.0484C14.5178 81.2301 14.5655 81.3889 14.6124 81.5099C14.6467 81.4648 14.692 81.3834 14.7373 81.2373C14.8678 80.8171 14.9354 80.0841 14.9543 78.8436C14.9733 77.3062 15.0855 76.2033 15.5093 75.1897C15.9329 74.1764 16.6474 73.3007 17.765 72.1713C18.318 71.611 18.5718 71.3055 18.689 71.0495C18.7859 70.8377 18.8037 70.6265 18.7184 70.184L18.7184 70.184L18.7175 70.1792C18.6039 69.5576 18.2656 67.5433 17.9654 65.6952C17.2599 61.7169 16.8581 60.3526 13.818 51.5958C12.5027 47.8288 9.04743 37.7031 6.11855 29.0395L6.11793 29.0377C4.67282 24.7076 3.30287 20.694 2.26624 17.7108C1.74787 16.219 1.31319 14.9859 0.994295 14.1C0.834765 13.6569 0.704783 13.3022 0.608067 13.0462C0.564717 12.9314 0.528663 12.8381 0.500004 12.7663C0.499714 13.0824 0.518183 13.4848 0.556817 13.9789ZM0.113511 12.1784C0.110116 12.1759 0.11031 12.1764 0.113842 12.1786L0.113511 12.1784Z" fill="#E72430" stroke="#CED9DB"/>
<path d="M14.723 103.732L14.7242 103.735C15.2382 105.194 16.2709 107.294 17.029 108.386L17.031 108.389C17.983 109.781 19.8089 111.866 21.4262 113.526C22.2336 114.355 22.976 115.064 23.5195 115.521C23.5578 115.553 23.5948 115.583 23.6302 115.612C23.5689 115.303 23.4652 114.952 23.3322 114.599C23.1948 114.235 23.0301 113.882 22.857 113.583C22.6798 113.278 22.5109 113.061 22.3746 112.943C21.3788 112.083 20.0497 110.559 18.9766 109.157C18.4378 108.454 17.9544 107.769 17.603 107.202C17.4278 106.918 17.2801 106.656 17.1745 106.429C17.0795 106.225 16.982 105.977 16.982 105.751C16.982 105.489 16.9988 105.248 17.0404 105.037C17.0812 104.83 17.1524 104.618 17.2859 104.442C17.4311 104.251 17.6375 104.123 17.8891 104.092C18.12 104.064 18.3429 104.124 18.5372 104.21C18.9199 104.378 19.3589 104.719 19.8514 105.18C20.3538 105.651 20.95 106.282 21.6488 107.074C21.7164 107.15 21.7809 107.22 21.8422 107.285C21.8164 107.224 21.7884 107.16 21.7581 107.093L21.7581 107.093L21.756 107.088C20.6366 104.553 19.9908 101.638 19.5753 97.3294L19.575 97.3267C19.3667 95.0359 19.2008 93.799 18.8706 92.9578C18.5619 92.1713 18.1018 91.7137 17.1537 91.0362L17.1474 91.0317L17.1412 91.027C16.4221 90.4787 15.8193 89.601 15.6408 88.753L15.6403 88.7504C15.3398 87.2841 14.8102 86.1403 13.4985 84.704C12.1631 83.2419 10.0304 81.491 6.51548 78.8272L6.51528 78.827C3.48239 76.5262 1.85916 75.2989 0.987472 74.7129C1.03225 74.7985 1.08154 74.8904 1.13502 74.9879C1.42776 75.5215 1.83292 76.1983 2.27685 76.8859C2.7719 77.6068 3.65876 79.2848 4.68011 81.3683C5.71125 83.4718 6.8969 86.0251 7.98843 88.5132C10.2083 93.5201 12.3774 98.3343 12.8564 99.2577C13.3597 100.228 14.1946 102.264 14.723 103.732Z" fill="#E72430" stroke="#E72430"/>
</svg>
