<svg width="24" height="24" viewBox="0 0 24 24" fill="none" xmlns="http://www.w3.org/2000/svg">
<path fill-rule="evenodd" clip-rule="evenodd" d="M6.7426 0C3.0188 0 0 3.01878 0 6.74263V17.2574C0 20.9812 3.0188 24 6.7426 24H17.2574C20.9812 24 24 20.9812 24 17.2574V6.74263C24 3.01878 20.9812 0 17.2574 0H6.7426ZM6.6487 2.21618C4.2009 2.21618 2.2165 4.20056 2.2165 6.64841V17.3517C2.2165 19.7996 4.2009 21.784 6.6487 21.784H17.3049C19.7528 21.784 21.7371 19.7996 21.7371 17.3517V6.6484C21.7371 4.20056 19.7528 2.21618 17.3049 2.21618H6.6487Z" fill="#959698"/>
</svg>
